<?xml version="1.0" encoding="UTF-8" standalone="no"?>
<!-- Created with Inkscape (http://www.inkscape.org/) -->

<svg
   xmlns:dc="http://purl.org/dc/elements/1.1/"
   xmlns:cc="http://creativecommons.org/ns#"
   xmlns:rdf="http://www.w3.org/1999/02/22-rdf-syntax-ns#"
   xmlns:svg="http://www.w3.org/2000/svg"
   xmlns="http://www.w3.org/2000/svg"
   xmlns:sodipodi="http://sodipodi.sourceforge.net/DTD/sodipodi-0.dtd"
   xmlns:inkscape="http://www.inkscape.org/namespaces/inkscape"
   width="140.83298mm"
   height="78.863304mm"
   viewBox="0 0 499.01448 279.43691"
   id="svg2"
   version="1.1"
   inkscape:version="0.91 r13725"
   sodipodi:docname="tdd.svg">
  <defs
     id="defs4">
    <marker
       inkscape:stockid="Arrow1Lend"
       orient="auto"
       refY="0"
       refX="0"
       id="marker7996"
       style="overflow:visible"
       inkscape:isstock="true">
      <path
         id="path7998"
         d="M 0,0 5,-5 -12.5,0 5,5 0,0 Z"
         style="fill:#000000;fill-opacity:1;fill-rule:evenodd;stroke:#000000;stroke-width:1pt;stroke-opacity:1"
         transform="matrix(-0.8,0,0,-0.8,-10,0)"
         inkscape:connector-curvature="0" />
    </marker>
    <marker
       inkscape:isstock="true"
       style="overflow:visible"
       id="marker7962"
       refX="0"
       refY="0"
       orient="auto"
       inkscape:stockid="Arrow1Lend">
      <path
         transform="matrix(-0.8,0,0,-0.8,-10,0)"
         style="fill:#000000;fill-opacity:1;fill-rule:evenodd;stroke:#000000;stroke-width:1pt;stroke-opacity:1"
         d="M 0,0 5,-5 -12.5,0 5,5 0,0 Z"
         id="path7964"
         inkscape:connector-curvature="0" />
    </marker>
    <marker
       inkscape:stockid="Arrow2Lend"
       orient="auto"
       refY="0"
       refX="0"
       id="Arrow2Lend"
       style="overflow:visible"
       inkscape:isstock="true">
      <path
         id="path4183"
         style="fill:#000000;fill-opacity:1;fill-rule:evenodd;stroke:#000000;stroke-width:0.625;stroke-linejoin:round;stroke-opacity:1"
         d="M 8.7185878,4.0337352 -2.2072895,0.01601326 8.7185884,-4.0017078 c -1.7454984,2.3720609 -1.7354408,5.6174519 -6e-7,8.035443 z"
         transform="matrix(-1.1,0,0,-1.1,-1.1,0)"
         inkscape:connector-curvature="0" />
    </marker>
  </defs>
  <sodipodi:namedview
     id="base"
     pagecolor="#ffffff"
     bordercolor="#666666"
     borderopacity="1.0"
     inkscape:pageopacity="0.0"
     inkscape:pageshadow="2"
     inkscape:zoom="1"
     inkscape:cx="382.03566"
     inkscape:cy="69.740112"
     inkscape:document-units="px"
     inkscape:current-layer="layer1"
     showgrid="false"
     fit-margin-top="10"
     fit-margin-left="10"
     fit-margin-right="10"
     fit-margin-bottom="10"
     inkscape:window-width="1600"
     inkscape:window-height="882"
     inkscape:window-x="0"
     inkscape:window-y="18"
     inkscape:window-maximized="0" />
  <metadata
     id="metadata7">
    <rdf:RDF>
      <cc:Work
         rdf:about="">
        <dc:format>image/svg+xml</dc:format>
        <dc:type
           rdf:resource="http://purl.org/dc/dcmitype/StillImage" />
        <dc:title></dc:title>
      </cc:Work>
    </rdf:RDF>
  </metadata>
  <g
     inkscape:label="Layer 1"
     inkscape:groupmode="layer"
     id="layer1"
     transform="translate(35.433064,-164.88187)">
    <g
       style="font-style:normal;font-variant:normal;font-weight:normal;font-stretch:normal;font-size:48.00000381px;line-height:125%;font-family:'URW Bookman L';-inkscape-font-specification:'URW Bookman L, Normal';text-align:center;letter-spacing:0px;word-spacing:0px;writing-mode:lr-tb;text-anchor:middle;fill:#ffffff;fill-opacity:1;stroke:#d1d1d1;stroke-width:1px;stroke-linecap:butt;stroke-linejoin:miter;stroke-opacity:1"
       id="text4136">
      <path
         d="m 5.4490566e-7,211.96944 0,1.488 L 1.2000006,213.60144 c 2.4960002,0.336 3.1200003,1.344 3.1200003,5.28 l 0,18.864 c 0,3.936 -0.6240001,4.944 -3.1200003,5.28 l -1.20000005509434,0.144 0,1.488 17.52000145509434,0 c 5.328,0 8.640001,-0.768 11.088001,-2.544 2.208,-1.584 3.6,-4.32 3.6,-7.104 0,-2.736 -1.344,-5.136 -3.648,-6.576 -1.44,-0.912 -2.544,-1.344 -5.136001,-1.968 2.448001,-0.576 3.456001,-1.056 4.656001,-2.016 1.488,-1.104 2.304,-2.832 2.304,-4.704 0,-2.4 -1.344,-4.704 -3.504,-5.952 -2.208,-1.296 -5.040001,-1.824 -9.984001,-1.824 l -16.89600145509434,0 z M 9.1200013,225.79344 l 0,-7.872 c 0,-3.456 0.9599997,-4.08 6.4800007,-4.08 6.624,0 9.888001,1.968 9.888001,6.048 0,4.224 -3.120001,5.904 -10.800001,5.904 l -5.5680007,0 z m 0,2.064 5.6640007,0 c 4.512,0 7.056,0.24 8.4,0.816 2.304001,1.008 3.600001,3.216 3.600001,6.096 0,2.4 -1.008,4.656 -2.688001,5.904 -1.824,1.392 -4.608,2.016 -8.736,2.016 -2.976,0 -4.992001,-0.528 -5.6640007,-1.536 -0.432,-0.624 -0.576,-1.536 -0.576,-3.888 l 0,-9.408 z"
         style=""
         id="path9418" />
      <path
         d="m 56.027256,238.32144 c -1.728,3.168 -3.936,4.608 -6.912001,4.608 -3.408,0 -5.904,-1.728 -7.2,-4.944 -0.72,-1.68 -0.96,-3.792 -0.96,-7.2 l 16.656001,0 c -0.048,-2.784 -0.672,-4.512 -2.256,-6.336 -1.92,-2.256 -4.848,-3.504 -8.208001,-3.504 -6.576,0 -11.328001,4.944 -11.328001,11.856 0,3.216 1.2,6.432 3.168001,8.64 2.16,2.448 5.088,3.648 8.688,3.648 4.416001,0 7.488001,-1.824 9.936001,-6 l -1.584,-0.768 z m -14.928001,-9.456 c 0.336,-2.016 0.624,-2.88 1.392,-3.888 1.008,-1.392 2.544,-2.112 4.464,-2.112 2.544,0 4.368001,1.2 5.280001,3.552 0.192,0.528 0.432,1.776 0.384,2.304 l 0,0.144 -11.520001,0 z"
         style=""
         id="path9420" />
      <path
         d="m 68.676759,210.24144 -1.92,0 c -2.448001,0.96 -3.552001,1.248 -6.816001,1.632 l 0,1.488 1.056,0.096 c 2.592,0.24 3.12,1.104 3.12,5.376 l 0,20.304 c 0,2.64 -0.864,3.744 -2.976,3.984 l -1.2,0.096 0,1.44 12.912001,0 0,-1.44 -1.2,-0.096 c -2.112,-0.24 -2.976,-1.344 -2.976,-3.984 l 0,-11.952 c 2.832,-2.688 5.52,-3.936 8.304,-3.936 2.736001,0 4.128001,1.632 4.128001,4.848 l 0,11.04 c 0,2.64 -0.864,3.744 -2.976,3.984 l -1.200001,0.096 0,1.44 12.912002,0 0,-1.44 -1.200001,-0.096 c -2.112,-0.24 -2.976,-1.344 -2.976,-3.984 l 0,-11.328 c 0,-2.976 -0.528,-4.368 -2.16,-5.472 -1.344,-0.912 -3.168,-1.392 -5.376,-1.392 -3.312001,0 -6.288001,1.248 -9.456001,3.984 l 0,-14.688 z"
         style=""
         id="path9422" />
      <path
         d="m 108.52426,231.02544 c -5.76,0.624 -6,0.672 -8.112,1.2 -5.328002,1.344 -8.064002,3.696 -8.064002,6.912 0,3.456 3.12,5.952 7.392001,5.952 3.216001,0 5.568001,-1.008 8.784001,-3.696 0.912,2.592 2.544,3.696 5.376,3.696 2.016,0 3.6,-0.576 4.944,-1.872 l -0.912,-1.248 c -0.816,0.72 -1.344,0.96 -2.16,0.96 -1.008,0 -1.872,-0.528 -2.256,-1.344 -0.336,-0.672 -0.432,-1.296 -0.432,-3.36 l 0,-10.176 c 0,-2.88 -0.768,-4.368 -2.736,-5.472 -1.776,-1.008 -4.272,-1.632 -6.48,-1.632 -2.064,0 -4.656001,0.576 -6.576001,1.392 -2.256001,1.008 -3.888001,3.024 -3.888001,4.704 0,1.152 1.056,2.112 2.304,2.112 1.344001,0 2.448001,-1.104 2.448001,-2.448 l -0.048,-1.344 c 0,-1.392 2.160001,-2.496 4.848001,-2.496 3.408,0 5.568,1.68 5.568,4.32 l 0,3.84 z m 0,8.208 c -2.688,2.544 -4.704,3.552 -7.104,3.552 -2.304001,0 -4.176001,-1.824 -4.176001,-4.128 0,-3.216 4.032001,-5.328 11.280001,-5.952 l 0,6.528 z"
         style=""
         id="path9424" />
      <path
         d="m 131.85601,240.43344 -5.424,-14.256 c -0.192,-0.576 -0.384,-1.296 -0.384,-1.632 0,-1.008 0.672,-1.488 2.256,-1.632 0.096,0 0.432,-0.048 0.816,-0.096 l 0,-1.44 -11.712,0 0,1.488 c 2.16,0.336 2.832,0.864 3.936,3.312 l 7.632,18.48 2.832,0 7.344,-16.992 c 1.296,-2.832 2.736,-4.224 4.992,-4.752 l 0,-1.536 -9.888,0 0,1.44 c 2.304,0.336 3.072,0.96 3.072,2.448 0,0.48 -0.192,1.296 -0.48,2.016 l -4.992,13.152 z"
         style=""
         id="path9426" />
      <path
         d="m 153.14552,221.37744 -1.632,0 c -2.928,0.528 -4.512,0.768 -7.056,0.96 l 0,1.44 0.96,0.096 c 2.496,0.24 3.168,1.104 3.168,3.984 l 0,11.28 c 0,2.64 -0.864,3.744 -2.976,3.984 l -1.2,0.096 0,1.44 12.864,0 0,-1.44 -1.152,-0.096 c -2.16,-0.24 -2.976,-1.344 -2.976,-3.984 l 0,-17.76 z m -2.208,-8.112 c -1.632,0 -2.928,1.296 -2.928,2.88 0,1.632 1.296,2.928 2.88,2.928 1.632,0 2.928,-1.296 2.928,-2.88 0,-1.584 -1.296,-2.928 -2.88,-2.928 z"
         style=""
         id="path9428" />
      <path
         d="m 171.27902,220.94544 c -3.36,0 -6.336,1.152 -8.256,3.12 -2.016,2.112 -3.36,5.664 -3.36,9.024 0,7.248 4.656,12 11.808,12 6.96,0 11.664,-4.8 11.664,-11.904 0,-3.12 -1.104,-6.288 -2.88,-8.496 -2.016,-2.4 -5.232,-3.744 -8.976,-3.744 z m 0.048,1.92 c 4.32,0 6.912,3.984 6.912,10.56 0,6.096 -2.496,9.744 -6.72,9.744 -4.416,0 -6.96,-3.696 -6.96,-10.176 0,-6.144 2.688,-10.128 6.768,-10.128 z"
         style=""
         id="path9430" />
      <path
         d="m 194.63327,221.37744 -1.632,0 c -2.976,0.576 -4.56,0.768 -7.248,0.96 l 0,1.44 1.152,0.096 c 2.448,0.192 3.168,1.104 3.168,3.984 l 0,11.28 c 0,2.64 -0.864,3.744 -2.976,3.984 l -1.2,0.096 0,1.44 12.912,0 0,-1.44 -1.2,-0.096 c -2.112,-0.24 -2.976,-1.344 -2.976,-3.984 l 0,-11.76 c 1.728,-1.92 3.024,-2.688 4.416,-2.688 0.816,0 1.152,0.144 2.016,0.72 0.816,0.624 1.584,0.864 2.448,0.864 1.584,0 2.736,-1.104 2.736,-2.64 0,-1.584 -1.44,-2.688 -3.504,-2.688 -1.104,0 -2.256,0.24 -3.408,0.768 -1.152,0.48 -1.392,0.672 -3.696,2.64 -0.144,0.144 -0.528,0.48 -1.008,0.864 l 0,-3.84 z"
         style=""
         id="path9432" />
    </g>
    <g
       style="font-style:normal;font-variant:normal;font-weight:normal;font-stretch:normal;font-size:48.00000381px;line-height:125%;font-family:'URW Bookman L';-inkscape-font-specification:'URW Bookman L, Normal';text-align:center;letter-spacing:0px;word-spacing:0px;writing-mode:lr-tb;text-anchor:middle;fill:#ffffff;fill-opacity:1;stroke:#d1d1d1;stroke-width:1px;stroke-linecap:butt;stroke-linejoin:miter;stroke-opacity:1"
       id="text4140">
      <path
         d="m 8.8799948,372.16571 c 0,-3.984 0.528,-4.848 3.1200002,-5.28 l 0.96,-0.144 0,-1.488 -12.9600009035718,0 0,1.488 0.9600000735718,0.144 c 2.59200023,0.432 3.12000023,1.296 3.12000023,5.28 l 0,18.864 c 0,3.984 -0.528,4.848 -3.12000023,5.28 l -0.9600000735718,0.144 0,1.488 12.9600009035718,0 0,-1.488 -0.96,-0.144 c -2.5920002,-0.432 -3.1200002,-1.296 -3.1200002,-5.28 l 0,-18.864 z"
         style=""
         id="path9435" />
      <path
         d="m 39.784498,380.03771 c 2.928,-2.448 4.848,-3.312 7.056,-3.312 2.496001,0 3.792001,1.776 3.792001,5.232 l 0,10.464 c 0,1.152 -0.192,2.16 -0.528,2.64 -0.576,0.864 -1.056,1.104 -2.448001,1.344 l -0.864,0.096 0,1.44 12.576001,0 0,-1.44 -1.2,-0.096 c -2.112,-0.24 -2.976,-1.344 -2.976,-3.984 l 0,-11.76 c 0,-4.032 -2.4,-6.432 -6.384,-6.432 -3.216001,0 -5.664001,1.056 -9.120001,3.984 -1.296,-2.88 -3.12,-3.984 -6.576001,-3.984 -3.36,0 -5.664,0.96 -8.736,3.648 l 0,-3.216 -1.632,0 c -2.784001,0.528 -4.272001,0.72 -7.104001,0.96 l 0,1.44 1.008,0.096 c 2.496,0.24 3.168,1.104 3.168,3.984 l 0,11.28 c 0,2.64 -0.864,3.744 -2.976,3.984 l -1.2,0.096 0,1.44 12.576001,0 0,-1.44 -0.864,-0.096 c -1.344,-0.192 -1.68,-0.384 -2.304,-1.104 -0.432,-0.576 -0.672,-1.584 -0.672,-2.88 l 0,-12.384 c 2.784,-2.4 4.704,-3.312 6.912,-3.312 2.736,0 3.936001,1.584 3.936001,5.088 l 0,10.608 c 0,2.64 -0.816001,3.696 -2.976001,3.984 l -1.008,0.096 0,1.44 12.528001,0 0,-1.44 -1.008,-0.096 c -2.16,-0.288 -2.976,-1.344 -2.976,-3.984 l 0,-12.384 z"
         style=""
         id="path9437" />
      <path
         d="m 69.614252,374.66171 -1.632,0 c -2.784,0.528 -4.272,0.72 -7.104,0.96 l 0,1.44 1.008,0.096 c 2.496,0.24 3.168,1.104 3.168,3.984 l 0,22.224 c 0,2.592 -0.864,3.792 -2.976,3.984 l -1.2,0.096 0,1.44 12.912001,0 0,-1.44 -1.2,-0.096 c -2.112001,-0.192 -2.976001,-1.392 -2.976001,-3.984 l 0,-7.44 c 2.208001,1.68 4.560001,2.448 7.584001,2.448 6.096,0 10.704001,-5.28 10.704001,-12.192 0,-2.976 -1.008,-6.096 -2.64,-8.256 -1.728001,-2.256 -4.704001,-3.696 -7.824001,-3.696 -3.168,0 -5.664,1.152 -7.824001,3.6 l 0,-3.168 z m 0,5.568 c 2.016001,-2.688 3.888001,-3.84 6.336001,-3.84 4.272,0 7.056,4.08 7.056,10.368 0,5.472 -2.976,9.456 -7.008,9.456 -2.4,0 -4.56,-0.912 -6.384001,-2.64 l 0,-13.344 z"
         style=""
         id="path9439" />
      <path
         d="m 99.285002,363.52571 -1.92,0 c -2.4,0.96 -3.504,1.248 -6.768,1.632 l 0,1.488 1.008,0.096 c 2.592,0.24 3.12,1.104 3.12,5.376 l 0,20.304 c 0,2.64 -0.816,3.744 -2.976,3.984 l -1.152,0.096 0,1.44 12.767998,0 0,-1.44 -1.104,-0.096 c -2.16,-0.24 -2.975998,-1.344 -2.975998,-3.984 l 0,-28.896 z"
         style=""
         id="path9441" />
      <path
         d="m 126.0585,391.60571 c -1.728,3.168 -3.936,4.608 -6.912,4.608 -3.408,0 -5.904,-1.728 -7.2,-4.944 -0.72,-1.68 -0.96,-3.792 -0.96,-7.2 l 16.656,0 c -0.048,-2.784 -0.672,-4.512 -2.256,-6.336 -1.92,-2.256 -4.848,-3.504 -8.208,-3.504 -6.576,0 -11.328,4.944 -11.328,11.856 0,3.216 1.2,6.432 3.168,8.64 2.16,2.448 5.088,3.648 8.688,3.648 4.416,0 7.488,-1.824 9.936,-6 l -1.584,-0.768 z m -14.928,-9.456 c 0.336,-2.016 0.624,-2.88 1.392,-3.888 1.008,-1.392 2.544,-2.112 4.464,-2.112 2.544,0 4.368,1.2 5.28,3.552 0.192,0.528 0.432,1.776 0.384,2.304 l 0,0.144 -11.52,0 z"
         style=""
         id="path9443" />
      <path
         d="m 153.97201,380.03771 c 2.928,-2.448 4.848,-3.312 7.056,-3.312 2.496,0 3.792,1.776 3.792,5.232 l 0,10.464 c 0,1.152 -0.192,2.16 -0.528,2.64 -0.576,0.864 -1.056,1.104 -2.448,1.344 l -0.864,0.096 0,1.44 12.576,0 0,-1.44 -1.2,-0.096 c -2.112,-0.24 -2.976,-1.344 -2.976,-3.984 l 0,-11.76 c 0,-4.032 -2.4,-6.432 -6.384,-6.432 -3.216,0 -5.664,1.056 -9.12,3.984 -1.296,-2.88 -3.12,-3.984 -6.576,-3.984 -3.36,0 -5.664,0.96 -8.736,3.648 l 0,-3.216 -1.632,0 c -2.784,0.528 -4.272,0.72 -7.104,0.96 l 0,1.44 1.008,0.096 c 2.496,0.24 3.168,1.104 3.168,3.984 l 0,11.28 c 0,2.64 -0.864,3.744 -2.976,3.984 l -1.2,0.096 0,1.44 12.576,0 0,-1.44 -0.864,-0.096 c -1.344,-0.192 -1.68,-0.384 -2.304,-1.104 -0.432,-0.576 -0.672,-1.584 -0.672,-2.88 l 0,-12.384 c 2.784,-2.4 4.704,-3.312 6.912,-3.312 2.736,0 3.936,1.584 3.936,5.088 l 0,10.608 c 0,2.64 -0.816,3.696 -2.976,3.984 l -1.008,0.096 0,1.44 12.528,0 0,-1.44 -1.008,-0.096 c -2.16,-0.288 -2.976,-1.344 -2.976,-3.984 l 0,-12.384 z"
         style=""
         id="path9445" />
      <path
         d="m 196.08976,391.60571 c -1.728,3.168 -3.936,4.608 -6.912,4.608 -3.408,0 -5.904,-1.728 -7.2,-4.944 -0.72,-1.68 -0.96,-3.792 -0.96,-7.2 l 16.656,0 c -0.048,-2.784 -0.672,-4.512 -2.256,-6.336 -1.92,-2.256 -4.848,-3.504 -8.208,-3.504 -6.576,0 -11.328,4.944 -11.328,11.856 0,3.216 1.2,6.432 3.168,8.64 2.16,2.448 5.088,3.648 8.688,3.648 4.416,0 7.488,-1.824 9.936,-6 l -1.584,-0.768 z m -14.928,-9.456 c 0.336,-2.016 0.624,-2.88 1.392,-3.888 1.008,-1.392 2.544,-2.112 4.464,-2.112 2.544,0 4.368,1.2 5.28,3.552 0.192,0.528 0.432,1.776 0.384,2.304 l 0,0.144 -11.52,0 z"
         style=""
         id="path9447" />
      <path
         d="m 208.88326,374.66171 -1.632,0 c -2.976,0.576 -4.56,0.768 -7.248,0.96 l 0,1.44 1.152,0.096 c 2.448,0.192 3.168,1.104 3.168,3.984 l 0,11.28 c 0,2.64 -0.864,3.744 -2.976,3.984 l -1.2,0.096 0,1.44 12.912,0 0,-1.44 -1.2,-0.096 c -2.112,-0.24 -2.976,-1.344 -2.976,-3.984 l 0,-11.856 c 2.976,-2.688 5.808,-4.032 8.496,-4.032 2.64,0 4.08,1.68 4.08,4.8 l 0,11.088 c 0,2.64 -0.864,3.744 -2.976,3.984 l -1.2,0.096 0,1.44 12.912,0 0,-1.44 -1.2,-0.096 c -2.112,-0.24 -2.976,-1.344 -2.976,-3.984 l 0,-11.856 c 0,-3.984 -2.736,-6.336 -7.248,-6.336 -3.648,0 -6.48,1.2 -9.888,4.224 l 0,-3.792 z"
         style=""
         id="path9449" />
      <path
         d="m 247.14676,374.66171 -6.864,0 0,-8.736 -1.824,0 c 0.048,5.904 -2.064,8.544 -6.768,8.736 l 0,1.584 4.032,0 0,16.08 c 0,2.352 0.672,3.84 2.208,4.8 1.248,0.768 2.976,1.248 4.656,1.248 2.832,0 5.04,-1.104 6.768,-3.36 l -1.296,-1.056 c -1.632,1.872 -2.736,2.496 -4.176,2.496 -2.448,0 -3.6,-1.968 -3.6,-6.336 l 0,-13.872 6.864,0 0,-1.584 z"
         style=""
         id="path9451" />
      <path
         d="m 266.86801,384.30971 c -5.76,0.624 -6,0.672 -8.112,1.2 -5.328,1.344 -8.064,3.696 -8.064,6.912 0,3.456 3.12,5.952 7.392,5.952 3.216,0 5.568,-1.008 8.784,-3.696 0.912,2.592 2.544,3.696 5.376,3.696 2.016,0 3.6,-0.576 4.944,-1.872 l -0.912,-1.248 c -0.816,0.72 -1.344,0.96 -2.16,0.96 -1.008,0 -1.872,-0.528 -2.256,-1.344 -0.336,-0.672 -0.432,-1.296 -0.432,-3.36 l 0,-10.176 c 0,-2.88 -0.768,-4.368 -2.736,-5.472 -1.776,-1.008 -4.272,-1.632 -6.48,-1.632 -2.064,0 -4.656,0.576 -6.576,1.392 -2.256,1.008 -3.888,3.024 -3.888,4.704 0,1.152 1.056,2.112 2.304,2.112 1.344,0 2.448,-1.104 2.448,-2.448 l -0.048,-1.344 c 0,-1.392 2.16,-2.496 4.848,-2.496 3.408,0 5.568,1.68 5.568,4.32 l 0,3.84 z m 0,8.208 c -2.688,2.544 -4.704,3.552 -7.104,3.552 -2.304,0 -4.176,-1.824 -4.176,-4.128 0,-3.216 4.032,-5.328 11.28,-5.952 l 0,6.528 z"
         style=""
         id="path9453" />
      <path
         d="m 293.27178,374.66171 -6.864,0 0,-8.736 -1.824,0 c 0.048,5.904 -2.06401,8.544 -6.76801,8.736 l 0,1.584 4.032,0 0,16.08 c 0,2.352 0.672,3.84 2.20801,4.8 1.248,0.768 2.976,1.248 4.656,1.248 2.832,0 5.04,-1.104 6.768,-3.36 l -1.296,-1.056 c -1.632,1.872 -2.736,2.496 -4.176,2.496 -2.448,0 -3.6,-1.968 -3.6,-6.336 l 0,-13.872 6.864,0 0,-1.584 z"
         style=""
         id="path9455" />
      <path
         d="m 304.83303,374.66171 -1.632,0 c -2.92801,0.528 -4.51201,0.768 -7.05601,0.96 l 0,1.44 0.96,0.096 c 2.496,0.24 3.168,1.104 3.168,3.984 l 0,11.28 c 0,2.64 -0.864,3.744 -2.976,3.984 l -1.2,0.096 0,1.44 12.86401,0 0,-1.44 -1.152,-0.096 c -2.16,-0.24 -2.976,-1.344 -2.976,-3.984 l 0,-17.76 z m -2.208,-8.112 c -1.63201,0 -2.92801,1.296 -2.92801,2.88 0,1.632 1.296,2.928 2.88001,2.928 1.632,0 2.928,-1.296 2.928,-2.88 0,-1.584 -1.296,-2.928 -2.88,-2.928 z"
         style=""
         id="path9457" />
      <path
         d="m 322.96653,374.22971 c -3.36,0 -6.336,1.152 -8.25601,3.12 -2.016,2.112 -3.36,5.664 -3.36,9.024 0,7.248 4.65601,12 11.80801,12 6.96,0 11.664,-4.8 11.664,-11.904 0,-3.12 -1.104,-6.288 -2.88,-8.496 -2.016,-2.4 -5.232,-3.744 -8.976,-3.744 z m 0.048,1.92 c 4.32,0 6.912,3.984 6.912,10.56 0,6.096 -2.496,9.744 -6.72,9.744 -4.416,0 -6.96,-3.696 -6.96,-10.176 0,-6.144 2.688,-10.128 6.768,-10.128 z"
         style=""
         id="path9459" />
      <path
         d="m 346.32078,374.66171 -1.632,0 c -2.97601,0.576 -4.56001,0.768 -7.24801,0.96 l 0,1.44 1.152,0.096 c 2.448,0.192 3.168,1.104 3.168,3.984 l 0,11.28 c 0,2.64 -0.864,3.744 -2.976,3.984 l -1.2,0.096 0,1.44 12.91201,0 0,-1.44 -1.2,-0.096 c -2.112,-0.24 -2.976,-1.344 -2.976,-3.984 l 0,-11.856 c 2.976,-2.688 5.808,-4.032 8.496,-4.032 2.64,0 4.08,1.68 4.08,4.8 l 0,11.088 c 0,2.64 -0.864,3.744 -2.976,3.984 l -1.2,0.096 0,1.44 12.912,0 0,-1.44 -1.2,-0.096 c -2.112,-0.24 -2.976,-1.344 -2.976,-3.984 l 0,-11.856 c 0,-3.984 -2.736,-6.336 -7.248,-6.336 -3.648,0 -6.48,1.2 -9.888,4.224 l 0,-3.792 z"
         style=""
         id="path9461" />
    </g>
    <g
       style="font-style:normal;font-variant:normal;font-weight:normal;font-stretch:normal;font-size:48.00000381px;line-height:125%;font-family:'URW Bookman L';-inkscape-font-specification:'URW Bookman L, Normal';text-align:center;letter-spacing:0px;word-spacing:0px;writing-mode:lr-tb;text-anchor:middle;fill:#ffffff;fill-opacity:1;stroke:#d1d1d1;stroke-width:1px;stroke-linecap:butt;stroke-linejoin:miter;stroke-opacity:1"
       id="text4144">
      <path
         d="m 335.69734,278.70451 -27.84001,0 -2.736,8.44801 1.584,0.576 c 2.832,-4.99201 6.144,-7.20001 10.56,-7.20001 1.584,0 2.112,0.48 2.112,1.92 l 0,22.03201 c 0,3.888 -0.72,5.088 -3.12,5.28 l -1.872,0.144 0,1.488 14.78401,0 0,-1.488 -1.872,-0.144 c -2.4,-0.192 -3.12,-1.392 -3.12,-5.28 l 0,-21.84001 c 0,-1.68 0.384,-2.112 1.968,-2.112 4.224,0 7.872,2.496 10.56,7.20001 l 1.68,-0.576 -2.688,-8.44801 z"
         style=""
         id="path9464" />
      <path
         d="m 358.60009,305.05652 c -1.728,3.168 -3.936,4.608 -6.912,4.608 -3.408,0 -5.904,-1.728 -7.2,-4.944 -0.72,-1.68 -0.96,-3.792 -0.96,-7.2 l 16.656,0 c -0.048,-2.784 -0.672,-4.512 -2.256,-6.336 -1.92,-2.256 -4.848,-3.504 -8.208,-3.504 -6.576,0 -11.328,4.944 -11.328,11.856 0,3.216 1.2,6.432 3.168,8.64 2.16,2.448 5.088,3.648 8.688,3.648 4.416,0 7.488,-1.824 9.936,-6 l -1.584,-0.768 z m -14.928,-9.456 c 0.336,-2.016 0.624,-2.88 1.392,-3.888 1.008,-1.392 2.544,-2.112 4.464,-2.112 2.544,0 4.368,1.2 5.28,3.552 0.192,0.528 0.432,1.776 0.384,2.304 l 0,0.144 -11.52,0 z"
         style=""
         id="path9466" />
      <path
         d="m 381.66559,288.30452 -1.344,0 -0.48,1.728 c -2.064,-1.632 -4.176,-2.352 -6.864,-2.352 -4.896,0 -8.784,3.072 -8.784,7.008 0,3.024 2.064,4.8 7.152,6.096 l 6.144,1.536 c 2.4,0.624 3.504,1.632 3.504,3.168 0,2.496 -2.688,4.416 -6.192,4.416 -2.976,0 -5.904,-1.296 -7.68,-3.456 -0.864,-1.008 -1.344,-1.968 -2.016,-3.792 l -1.632,0 1.632,8.544 1.584,0 0.528,-2.016 c 2.592,1.968 4.608,2.64 7.728,2.64 5.76,0 9.984,-3.312 9.984,-7.776 0,-3.264 -1.92,-5.184 -6.096,-6.192 l -6.672,-1.632 c -1.152,-0.288 -1.728,-0.48 -2.256,-0.72 -0.912,-0.48 -1.488,-1.344 -1.488,-2.304 0,-2.064 2.016,-3.6 4.848,-3.6 3.648,0 6.816,2.304 8.4,6.096 l 1.536,0 -1.536,-7.392 z"
         style=""
         id="path9468" />
      <path
         d="m 402.90709,288.11252 -6.864,0 0,-8.73601 -1.824,0 c 0.048,5.90401 -2.064,8.54401 -6.768,8.73601 l 0,1.584 4.032,0 0,16.08 c 0,2.352 0.672,3.84 2.208,4.8 1.248,0.768 2.976,1.248 4.656,1.248 2.832,0 5.04,-1.104 6.768,-3.36 l -1.296,-1.056 c -1.632,1.872 -2.736,2.496 -4.176,2.496 -2.448,0 -3.6,-1.968 -3.6,-6.336 l 0,-13.872 6.864,0 0,-1.584 z"
         style=""
         id="path9470" />
      <path
         d="m 424.88434,288.30452 -1.344,0 -0.48,1.728 c -2.064,-1.632 -4.176,-2.352 -6.864,-2.352 -4.896,0 -8.784,3.072 -8.784,7.008 0,3.024 2.064,4.8 7.152,6.096 l 6.144,1.536 c 2.4,0.624 3.504,1.632 3.504,3.168 0,2.496 -2.688,4.416 -6.192,4.416 -2.976,0 -5.904,-1.296 -7.68,-3.456 -0.864,-1.008 -1.344,-1.968 -2.016,-3.792 l -1.632,0 1.632,8.544 1.584,0 0.528,-2.016 c 2.592,1.968 4.608,2.64 7.728,2.64 5.76,0 9.984,-3.312 9.984,-7.776 0,-3.264 -1.92,-5.184 -6.096,-6.192 l -6.672,-1.632 c -1.152,-0.288 -1.728,-0.48 -2.256,-0.72 -0.912,-0.48 -1.488,-1.344 -1.488,-2.304 0,-2.064 2.016,-3.6 4.848,-3.6 3.648,0 6.816,2.304 8.4,6.096 l 1.536,0 -1.536,-7.392 z"
         style=""
         id="path9472" />
    </g>
    <g
       id="g9383"
       style="fill:#ffffff;fill-opacity:1;stroke:#d1d1d1;stroke-opacity:1">
      <path
         style="color:#000000;font-style:normal;font-variant:normal;font-weight:normal;font-stretch:normal;font-size:medium;line-height:normal;font-family:sans-serif;text-indent:0;text-align:start;text-decoration:none;text-decoration-line:none;text-decoration-style:solid;text-decoration-color:#000000;letter-spacing:normal;word-spacing:normal;text-transform:none;direction:ltr;block-progression:tb;writing-mode:lr-tb;baseline-shift:baseline;text-anchor:start;white-space:normal;clip-rule:nonzero;display:inline;overflow:visible;visibility:visible;opacity:1;isolation:auto;mix-blend-mode:normal;color-interpolation:sRGB;color-interpolation-filters:linearRGB;solid-color:#000000;solid-opacity:1;fill:#ffffff;fill-opacity:1;fill-rule:evenodd;stroke:#d1d1d1;stroke-width:1.5;stroke-linecap:butt;stroke-linejoin:miter;stroke-miterlimit:4;stroke-dasharray:none;stroke-dashoffset:0;stroke-opacity:1;color-rendering:auto;image-rendering:auto;shape-rendering:auto;text-rendering:auto;enable-background:accumulate"
         d="m 88.285156,257.13672 c -9.916674,31.34885 -5.348996,68.22445 7.03711,94.54492 l 1.355468,-0.63867 C 84.461572,325.08362 79.940568,288.48658 89.714844,257.58789 l -1.429688,-0.45117 z"
         id="path7936"
         inkscape:connector-curvature="0" />
      <path
         inkscape:connector-curvature="0"
         style="fill:#ffffff;fill-opacity:1;fill-rule:evenodd;stroke:#d1d1d1;stroke-width:1.2pt;stroke-opacity:1"
         d="M 89.613045,337.78992 81.62935,334.91579 96,351.3622 l -3.512825,-21.55597 -2.87413,7.98369 z"
         id="path9389" />
    </g>
    <g
       id="g9391"
       style="fill:#ffffff;fill-opacity:1;stroke:#d1d1d1;stroke-opacity:1">
      <path
         style="color:#000000;font-style:normal;font-variant:normal;font-weight:normal;font-stretch:normal;font-size:medium;line-height:normal;font-family:sans-serif;text-indent:0;text-align:start;text-decoration:none;text-decoration-line:none;text-decoration-style:solid;text-decoration-color:#000000;letter-spacing:normal;word-spacing:normal;text-transform:none;direction:ltr;block-progression:tb;writing-mode:lr-tb;baseline-shift:baseline;text-anchor:start;white-space:normal;clip-rule:nonzero;display:inline;overflow:visible;visibility:visible;opacity:1;isolation:auto;mix-blend-mode:normal;color-interpolation:sRGB;color-interpolation-filters:linearRGB;solid-color:#000000;solid-opacity:1;fill:#ffffff;fill-opacity:1;fill-rule:evenodd;stroke:#d1d1d1;stroke-width:1.5;stroke-linecap:butt;stroke-linejoin:miter;stroke-miterlimit:4;stroke-dasharray:none;stroke-dashoffset:0;stroke-opacity:1;color-rendering:auto;image-rendering:auto;shape-rendering:auto;text-rendering:auto;enable-background:accumulate"
         d="m 280.85742,224.33594 c -22.49548,-0.46886 -46.96294,3.32915 -71.03711,9.29883 l 0.35938,1.45507 c 31.9836,-7.93098 64.62054,-11.97827 92.17773,-7.30664 27.5572,4.67164 49.99673,17.97213 61.95703,44.88282 l 1.3711,-0.60938 c -12.16947,-27.38129 -35.18839,-41.02394 -63.07813,-45.75195 -6.97243,-1.182 -14.2515,-1.81247 -21.75,-1.96875 z"
         id="path7940"
         inkscape:connector-curvature="0" />
      <path
         inkscape:connector-curvature="0"
         id="path9397"
         d="m 358.90792,258.65503 -7.9197,-3.04604 L 365,272.3622 l -3.04604,-21.62687 -3.04604,7.9197 z"
         style="fill:#ffffff;fill-opacity:1;fill-rule:evenodd;stroke:#d1d1d1;stroke-width:1.2pt;stroke-opacity:1" />
    </g>
    <g
       id="g9369"
       style="fill:#ffffff;fill-opacity:1;stroke:#d1d1d1;stroke-opacity:1">
      <path
         style="color:#000000;font-style:normal;font-variant:normal;font-weight:normal;font-stretch:normal;font-size:medium;line-height:normal;font-family:sans-serif;text-indent:0;text-align:start;text-decoration:none;text-decoration-line:none;text-decoration-style:solid;text-decoration-color:#000000;letter-spacing:normal;word-spacing:normal;text-transform:none;direction:ltr;block-progression:tb;writing-mode:lr-tb;baseline-shift:baseline;text-anchor:start;white-space:normal;clip-rule:nonzero;display:inline;overflow:visible;visibility:visible;opacity:1;isolation:auto;mix-blend-mode:normal;color-interpolation:sRGB;color-interpolation-filters:linearRGB;solid-color:#000000;solid-opacity:1;fill:#ffffff;fill-opacity:1;fill-rule:evenodd;stroke:#d1d1d1;stroke-width:1.5;stroke-linecap:butt;stroke-linejoin:miter;stroke-miterlimit:4;stroke-dasharray:none;stroke-dashoffset:0;stroke-opacity:1;color-rendering:auto;image-rendering:auto;shape-rendering:auto;text-rendering:auto;enable-background:accumulate"
         d="m 363.43164,322.87305 c -9.12903,10.61796 -17.60574,13.71119 -26.28125,13.54492 -8.67551,-0.16627 -17.59774,-3.7018 -27.28906,-6.5957 -9.69133,-2.89391 -20.17765,-5.12522 -31.94141,-2.48047 -11.76376,2.64474 -24.7418,10.15424 -39.47656,26.51953 l 1.11328,1.00195 c 14.59461,-16.20963 27.28929,-23.4932 38.69141,-26.05664 11.40211,-2.56344 21.57397,-0.41834 31.18359,2.45117 9.60962,2.86951 18.63036,6.48458 27.68945,6.65821 9.0591,0.17362 18.10947,-3.20366 27.44727,-14.06446 l -1.13672,-0.97851 z"
         id="path7942"
         inkscape:connector-curvature="0" />
      <path
         inkscape:connector-curvature="0"
         style="fill:#ffffff;fill-opacity:1;fill-rule:evenodd;stroke:#d1d1d1;stroke-width:1.2pt;stroke-opacity:1"
         d="M 249.03673,343.21482 248.59247,334.74118 239,354.3622 l 18.51037,-11.59164 -8.47364,0.44426 z"
         id="path9375" />
    </g>
    <g
       style="font-style:normal;font-variant:normal;font-weight:normal;font-stretch:normal;font-size:27.5px;line-height:125%;font-family:'URW Bookman L';-inkscape-font-specification:'URW Bookman L, Normal';text-align:center;letter-spacing:0px;word-spacing:0px;writing-mode:lr-tb;text-anchor:middle;fill:#ffffff;fill-opacity:1;stroke:#d1d1d1;stroke-width:1px;stroke-linecap:butt;stroke-linejoin:miter;stroke-opacity:1"
       id="text9248">
      <path
         d="m 242.18275,205.31994 -0.935,0 c -1.6775,0.3025 -2.585,0.44 -4.0425,0.55 l 0,0.825 0.55,0.055 c 1.43,0.1375 1.815,0.6325 1.815,2.2825 l 0,6.4625 c 0,1.5125 -0.495,2.145 -1.705,2.2825 l -0.6875,0.055 0,0.825 7.37,0 0,-0.825 -0.66,-0.055 c -1.2375,-0.1375 -1.705,-0.77 -1.705,-2.2825 l 0,-10.175 z m -1.265,-4.6475 c -0.935,0 -1.6775,0.7425 -1.6775,1.65 0,0.935 0.7425,1.6775 1.65,1.6775 0.935,0 1.6775,-0.7425 1.6775,-1.65 0,-0.9075 -0.7425,-1.6775 -1.65,-1.6775 z"
         style=""
         id="path9475" />
      <path
         d="m 250.53673,205.31994 -0.935,0 c -1.705,0.33 -2.6125,0.44 -4.1525,0.55 l 0,0.825 0.66,0.055 c 1.4025,0.11 1.815,0.6325 1.815,2.2825 l 0,6.4625 c 0,1.5125 -0.495,2.145 -1.705,2.2825 l -0.6875,0.055 0,0.825 7.3975,0 0,-0.825 -0.6875,-0.055 c -1.21,-0.1375 -1.705,-0.77 -1.705,-2.2825 l 0,-6.7925 c 1.705,-1.54 3.3275,-2.31 4.8675,-2.31 1.5125,0 2.3375,0.9625 2.3375,2.75 l 0,6.3525 c 0,1.5125 -0.495,2.145 -1.705,2.2825 l -0.6875,0.055 0,0.825 7.3975,0 0,-0.825 -0.6875,-0.055 c -1.21,-0.1375 -1.705,-0.77 -1.705,-2.2825 l 0,-6.7925 c 0,-2.2825 -1.5675,-3.63 -4.1525,-3.63 -2.09,0 -3.7125,0.6875 -5.665,2.42 l 0,-2.1725 z"
         style=""
         id="path9477" />
      <path
         d="m 272.45853,205.31994 -3.9325,0 0,-5.005 -1.045,0 c 0.0275,3.3825 -1.1825,4.895 -3.8775,5.005 l 0,0.9075 2.31,0 0,9.2125 c 0,1.3475 0.385,2.2 1.265,2.75 0.715,0.44 1.705,0.715 2.6675,0.715 1.6225,0 2.8875,-0.6325 3.8775,-1.925 l -0.7425,-0.605 c -0.935,1.0725 -1.5675,1.43 -2.3925,1.43 -1.4025,0 -2.0625,-1.1275 -2.0625,-3.63 l 0,-7.9475 3.9325,0 0,-0.9075 z"
         style=""
         id="path9479" />
      <path
         d="m 286.12216,215.02744 c -0.99,1.815 -2.255,2.64 -3.96,2.64 -1.9525,0 -3.3825,-0.99 -4.125,-2.8325 -0.4125,-0.9625 -0.55,-2.1725 -0.55,-4.125 l 9.5425,0 c -0.0275,-1.595 -0.385,-2.585 -1.2925,-3.63 -1.1,-1.2925 -2.7775,-2.0075 -4.7025,-2.0075 -3.7675,0 -6.49,2.8325 -6.49,6.7925 0,1.8425 0.6875,3.685 1.815,4.95 1.2375,1.4025 2.915,2.09 4.9775,2.09 2.53,0 4.29,-1.045 5.6925,-3.4375 l -0.9075,-0.44 z m -8.5525,-5.4175 c 0.1925,-1.155 0.3575,-1.65 0.7975,-2.2275 0.5775,-0.7975 1.4575,-1.21 2.5575,-1.21 1.4575,0 2.5025,0.6875 3.025,2.035 0.11,0.3025 0.2475,1.0175 0.22,1.32 l 0,0.0825 -6.6,0 z"
         style=""
         id="path9481" />
      <path
         d="m 293.45177,205.31994 -0.935,0 c -1.705,0.33 -2.6125,0.44 -4.1525,0.55 l 0,0.825 0.66,0.055 c 1.4025,0.11 1.815,0.6325 1.815,2.2825 l 0,6.4625 c 0,1.5125 -0.495,2.145 -1.705,2.2825 l -0.6875,0.055 0,0.825 7.3975,0 0,-0.825 -0.6875,-0.055 c -1.21,-0.1375 -1.705,-0.77 -1.705,-2.2825 l 0,-6.7375 c 0.99,-1.1 1.7325,-1.54 2.53,-1.54 0.4675,0 0.66,0.0825 1.155,0.4125 0.4675,0.3575 0.9075,0.495 1.4025,0.495 0.9075,0 1.5675,-0.6325 1.5675,-1.5125 0,-0.9075 -0.825,-1.54 -2.0075,-1.54 -0.6325,0 -1.2925,0.1375 -1.9525,0.44 -0.66,0.275 -0.7975,0.385 -2.1175,1.5125 -0.0825,0.0825 -0.3025,0.275 -0.5775,0.495 l 0,-2.2 z"
         style=""
         id="path9483" />
      <path
         d="m 305.45423,205.31994 -0.935,0 c -1.595,0.3025 -2.4475,0.4125 -4.07,0.55 l 0,0.825 0.5775,0.055 c 1.43,0.1375 1.815,0.6325 1.815,2.2825 l 0,12.7325 c 0,1.485 -0.495,2.1725 -1.705,2.2825 l -0.6875,0.055 0,0.825 7.3975,0 0,-0.825 -0.6875,-0.055 c -1.21,-0.11 -1.705,-0.7975 -1.705,-2.2825 l 0,-4.2625 c 1.265,0.9625 2.6125,1.4025 4.345,1.4025 3.4925,0 6.1325,-3.025 6.1325,-6.985 0,-1.705 -0.5775,-3.4925 -1.5125,-4.73 -0.99,-1.2925 -2.695,-2.1175 -4.4825,-2.1175 -1.815,0 -3.245,0.66 -4.4825,2.0625 l 0,-1.815 z m 0,3.19 c 1.155,-1.54 2.2275,-2.2 3.63,-2.2 2.4475,0 4.0425,2.3375 4.0425,5.94 0,3.135 -1.705,5.4175 -4.015,5.4175 -1.375,0 -2.6125,-0.5225 -3.6575,-1.5125 l 0,-7.645 z"
         style=""
         id="path9485" />
      <path
         d="m 322.5631,205.31994 -0.935,0 c -1.705,0.33 -2.6125,0.44 -4.1525,0.55 l 0,0.825 0.66,0.055 c 1.4025,0.11 1.815,0.6325 1.815,2.2825 l 0,6.4625 c 0,1.5125 -0.495,2.145 -1.705,2.2825 l -0.6875,0.055 0,0.825 7.3975,0 0,-0.825 -0.6875,-0.055 c -1.21,-0.1375 -1.705,-0.77 -1.705,-2.2825 l 0,-6.7375 c 0.99,-1.1 1.7325,-1.54 2.53,-1.54 0.4675,0 0.66,0.0825 1.155,0.4125 0.4675,0.3575 0.9075,0.495 1.4025,0.495 0.9075,0 1.5675,-0.6325 1.5675,-1.5125 0,-0.9075 -0.825,-1.54 -2.0075,-1.54 -0.6325,0 -1.2925,0.1375 -1.9525,0.44 -0.66,0.275 -0.7975,0.385 -2.1175,1.5125 -0.0825,0.0825 -0.3025,0.275 -0.5775,0.495 l 0,-2.2 z"
         style=""
         id="path9487" />
      <path
         d="m 341.60556,215.02744 c -0.99,1.815 -2.255,2.64 -3.96,2.64 -1.9525,0 -3.3825,-0.99 -4.125,-2.8325 -0.4125,-0.9625 -0.55,-2.1725 -0.55,-4.125 l 9.5425,0 c -0.0275,-1.595 -0.385,-2.585 -1.2925,-3.63 -1.1,-1.2925 -2.7775,-2.0075 -4.7025,-2.0075 -3.7675,0 -6.49,2.8325 -6.49,6.7925 0,1.8425 0.6875,3.685 1.815,4.95 1.2375,1.4025 2.915,2.09 4.9775,2.09 2.53,0 4.29,-1.045 5.6925,-3.4375 l -0.9075,-0.44 z m -8.5525,-5.4175 c 0.1925,-1.155 0.3575,-1.65 0.7975,-2.2275 0.5775,-0.7975 1.4575,-1.21 2.5575,-1.21 1.4575,0 2.5025,0.6875 3.025,2.035 0.11,0.3025 0.2475,1.0175 0.22,1.32 l 0,0.0825 -6.6,0 z"
         style=""
         id="path9489" />
      <path
         d="m 352.70267,205.31994 -3.9325,0 0,-5.005 -1.045,0 c 0.0275,3.3825 -1.1825,4.895 -3.8775,5.005 l 0,0.9075 2.31,0 0,9.2125 c 0,1.3475 0.385,2.2 1.265,2.75 0.715,0.44 1.705,0.715 2.6675,0.715 1.6225,0 2.8875,-0.6325 3.8775,-1.925 l -0.7425,-0.605 c -0.935,1.0725 -1.5675,1.43 -2.3925,1.43 -1.4025,0 -2.0625,-1.1275 -2.0625,-3.63 l 0,-7.9475 3.9325,0 0,-0.9075 z"
         style=""
         id="path9491" />
    </g>
    <g
       style="font-style:normal;font-variant:normal;font-weight:normal;font-stretch:normal;font-size:27.5px;line-height:125%;font-family:'URW Bookman L';-inkscape-font-specification:'URW Bookman L, Normal';text-align:center;letter-spacing:0px;word-spacing:0px;writing-mode:lr-tb;text-anchor:middle;fill:#ffffff;fill-opacity:1;stroke:#d1d1d1;stroke-width:1px;stroke-linecap:butt;stroke-linejoin:miter;stroke-opacity:1"
       id="text9252">
      <path
         d="m 94.182747,288.31994 -0.935,0 c -1.6775,0.3025 -2.585,0.44 -4.0425,0.55 l 0,0.825 0.55,0.055 c 1.43,0.1375 1.815,0.6325 1.815,2.2825 l 0,6.4625 c 0,1.5125 -0.495,2.145 -1.705,2.2825 l -0.6875,0.055 0,0.825 7.37,0 0,-0.825 -0.66,-0.055 c -1.2375,-0.1375 -1.705,-0.77 -1.705,-2.2825 l 0,-10.175 z m -1.265,-4.6475 c -0.935,0 -1.6775,0.7425 -1.6775,1.65 0,0.935 0.7425,1.6775 1.65,1.6775 0.935,0 1.6775,-0.7425 1.6775,-1.65 0,-0.9075 -0.7425,-1.6775 -1.65,-1.6775 z"
         style=""
         id="path9494" />
      <path
         d="m 102.53673,288.31994 -0.935,0 c -1.704999,0.33 -2.612499,0.44 -4.152499,0.55 l 0,0.825 0.66,0.055 c 1.4025,0.11 1.815,0.6325 1.815,2.2825 l 0,6.4625 c 0,1.5125 -0.495,2.145 -1.705,2.2825 l -0.6875,0.055 0,0.825 7.397499,0 0,-0.825 -0.6875,-0.055 c -1.21,-0.1375 -1.705,-0.77 -1.705,-2.2825 l 0,-6.7925 c 1.705,-1.54 3.3275,-2.31 4.8675,-2.31 1.5125,0 2.3375,0.9625 2.3375,2.75 l 0,6.3525 c 0,1.5125 -0.495,2.145 -1.705,2.2825 l -0.6875,0.055 0,0.825 7.3975,0 0,-0.825 -0.6875,-0.055 c -1.21,-0.1375 -1.705,-0.77 -1.705,-2.2825 l 0,-6.7925 c 0,-2.2825 -1.5675,-3.63 -4.1525,-3.63 -2.09,0 -3.7125,0.6875 -5.665,2.42 l 0,-2.1725 z"
         style=""
         id="path9496" />
      <path
         d="m 124.45853,288.31994 -3.9325,0 0,-5.005 -1.045,0 c 0.0275,3.3825 -1.1825,4.895 -3.8775,5.005 l 0,0.9075 2.31,0 0,9.2125 c 0,1.3475 0.385,2.2 1.265,2.75 0.715,0.44 1.705,0.715 2.6675,0.715 1.6225,0 2.8875,-0.6325 3.8775,-1.925 l -0.7425,-0.605 c -0.935,1.0725 -1.5675,1.43 -2.3925,1.43 -1.4025,0 -2.0625,-1.1275 -2.0625,-3.63 l 0,-7.9475 3.9325,0 0,-0.9075 z"
         style=""
         id="path9498" />
      <path
         d="m 138.12216,298.02744 c -0.99,1.815 -2.255,2.64 -3.96,2.64 -1.9525,0 -3.3825,-0.99 -4.125,-2.8325 -0.4125,-0.9625 -0.55,-2.1725 -0.55,-4.125 l 9.5425,0 c -0.0275,-1.595 -0.385,-2.585 -1.2925,-3.63 -1.1,-1.2925 -2.7775,-2.0075 -4.7025,-2.0075 -3.7675,0 -6.49,2.8325 -6.49,6.7925 0,1.8425 0.6875,3.685 1.815,4.95 1.2375,1.4025 2.915,2.09 4.9775,2.09 2.53,0 4.29,-1.045 5.6925,-3.4375 l -0.9075,-0.44 z m -8.5525,-5.4175 c 0.1925,-1.155 0.3575,-1.65 0.7975,-2.2275 0.5775,-0.7975 1.4575,-1.21 2.5575,-1.21 1.4575,0 2.5025,0.6875 3.025,2.035 0.11,0.3025 0.2475,1.0175 0.22,1.32 l 0,0.0825 -6.6,0 z"
         style=""
         id="path9500" />
      <path
         d="m 145.45177,288.31994 -0.935,0 c -1.705,0.33 -2.6125,0.44 -4.1525,0.55 l 0,0.825 0.66,0.055 c 1.4025,0.11 1.815,0.6325 1.815,2.2825 l 0,6.4625 c 0,1.5125 -0.495,2.145 -1.705,2.2825 l -0.6875,0.055 0,0.825 7.3975,0 0,-0.825 -0.6875,-0.055 c -1.21,-0.1375 -1.705,-0.77 -1.705,-2.2825 l 0,-6.7375 c 0.99,-1.1 1.7325,-1.54 2.53,-1.54 0.4675,0 0.66,0.0825 1.155,0.4125 0.4675,0.3575 0.9075,0.495 1.4025,0.495 0.9075,0 1.5675,-0.6325 1.5675,-1.5125 0,-0.9075 -0.825,-1.54 -2.0075,-1.54 -0.6325,0 -1.2925,0.1375 -1.9525,0.44 -0.66,0.275 -0.7975,0.385 -2.1175,1.5125 -0.0825,0.0825 -0.3025,0.275 -0.5775,0.495 l 0,-2.2 z"
         style=""
         id="path9502" />
      <path
         d="m 157.45423,288.31994 -0.935,0 c -1.595,0.3025 -2.4475,0.4125 -4.07,0.55 l 0,0.825 0.5775,0.055 c 1.43,0.1375 1.815,0.6325 1.815,2.2825 l 0,12.7325 c 0,1.485 -0.495,2.1725 -1.705,2.2825 l -0.6875,0.055 0,0.825 7.3975,0 0,-0.825 -0.6875,-0.055 c -1.21,-0.11 -1.705,-0.7975 -1.705,-2.2825 l 0,-4.2625 c 1.265,0.9625 2.6125,1.4025 4.345,1.4025 3.4925,0 6.1325,-3.025 6.1325,-6.985 0,-1.705 -0.5775,-3.4925 -1.5125,-4.73 -0.99,-1.2925 -2.695,-2.1175 -4.4825,-2.1175 -1.815,0 -3.245,0.66 -4.4825,2.0625 l 0,-1.815 z m 0,3.19 c 1.155,-1.54 2.2275,-2.2 3.63,-2.2 2.4475,0 4.0425,2.3375 4.0425,5.94 0,3.135 -1.705,5.4175 -4.015,5.4175 -1.375,0 -2.6125,-0.5225 -3.6575,-1.5125 l 0,-7.645 z"
         style=""
         id="path9504" />
      <path
         d="m 174.5631,288.31994 -0.935,0 c -1.705,0.33 -2.6125,0.44 -4.1525,0.55 l 0,0.825 0.66,0.055 c 1.4025,0.11 1.815,0.6325 1.815,2.2825 l 0,6.4625 c 0,1.5125 -0.495,2.145 -1.705,2.2825 l -0.6875,0.055 0,0.825 7.3975,0 0,-0.825 -0.6875,-0.055 c -1.21,-0.1375 -1.705,-0.77 -1.705,-2.2825 l 0,-6.7375 c 0.99,-1.1 1.7325,-1.54 2.53,-1.54 0.4675,0 0.66,0.0825 1.155,0.4125 0.4675,0.3575 0.9075,0.495 1.4025,0.495 0.9075,0 1.5675,-0.6325 1.5675,-1.5125 0,-0.9075 -0.825,-1.54 -2.0075,-1.54 -0.6325,0 -1.2925,0.1375 -1.9525,0.44 -0.66,0.275 -0.7975,0.385 -2.1175,1.5125 -0.0825,0.0825 -0.3025,0.275 -0.5775,0.495 l 0,-2.2 z"
         style=""
         id="path9506" />
      <path
         d="m 193.60556,298.02744 c -0.99,1.815 -2.255,2.64 -3.96,2.64 -1.9525,0 -3.3825,-0.99 -4.125,-2.8325 -0.4125,-0.9625 -0.55,-2.1725 -0.55,-4.125 l 9.5425,0 c -0.0275,-1.595 -0.385,-2.585 -1.2925,-3.63 -1.1,-1.2925 -2.7775,-2.0075 -4.7025,-2.0075 -3.7675,0 -6.49,2.8325 -6.49,6.7925 0,1.8425 0.6875,3.685 1.815,4.95 1.2375,1.4025 2.915,2.09 4.9775,2.09 2.53,0 4.29,-1.045 5.6925,-3.4375 l -0.9075,-0.44 z m -8.5525,-5.4175 c 0.1925,-1.155 0.3575,-1.65 0.7975,-2.2275 0.5775,-0.7975 1.4575,-1.21 2.5575,-1.21 1.4575,0 2.5025,0.6875 3.025,2.035 0.11,0.3025 0.2475,1.0175 0.22,1.32 l 0,0.0825 -6.6,0 z"
         style=""
         id="path9508" />
      <path
         d="m 204.70267,288.31994 -3.9325,0 0,-5.005 -1.045,0 c 0.0275,3.3825 -1.1825,4.895 -3.8775,5.005 l 0,0.9075 2.31,0 0,9.2125 c 0,1.3475 0.385,2.2 1.265,2.75 0.715,0.44 1.705,0.715 2.6675,0.715 1.6225,0 2.8875,-0.6325 3.8775,-1.925 l -0.7425,-0.605 c -0.935,1.0725 -1.5675,1.43 -2.3925,1.43 -1.4025,0 -2.0625,-1.1275 -2.0625,-3.63 l 0,-7.9475 3.9325,0 0,-0.9075 z"
         style=""
         id="path9510" />
    </g>
    <g
       style="font-style:normal;font-variant:normal;font-weight:normal;font-stretch:normal;font-size:27.5px;line-height:125%;font-family:'URW Bookman L';-inkscape-font-specification:'URW Bookman L, Normal';text-align:center;letter-spacing:0px;word-spacing:0px;writing-mode:lr-tb;text-anchor:middle;fill:#ffffff;fill-opacity:1;stroke:#d1d1d1;stroke-width:1px;stroke-linecap:butt;stroke-linejoin:miter;stroke-opacity:1"
       id="text9256">
      <path
         d="m 358.56279,352.23744 -3.1075,-8.1675 c -0.11,-0.33 -0.22,-0.7425 -0.22,-0.935 0,-0.5775 0.385,-0.8525 1.2925,-0.935 0.055,0 0.2475,-0.0275 0.4675,-0.055 l 0,-0.825 -6.71,0 0,0.8525 c 1.2375,0.1925 1.6225,0.495 2.255,1.8975 l 4.3725,10.5875 1.6225,0 4.2075,-9.735 c 0.7425,-1.6225 1.5675,-2.42 2.86,-2.7225 l 0,-0.88 -5.665,0 0,0.825 c 1.32,0.1925 1.76,0.55 1.76,1.4025 0,0.275 -0.11,0.7425 -0.275,1.155 l -2.86,7.535 z"
         style=""
         id="path9513" />
      <path
         d="m 377.7999,351.02744 c -0.99,1.815 -2.255,2.64 -3.96,2.64 -1.9525,0 -3.3825,-0.99 -4.125,-2.8325 -0.4125,-0.9625 -0.55,-2.1725 -0.55,-4.125 l 9.5425,0 c -0.0275,-1.595 -0.385,-2.585 -1.2925,-3.63 -1.1,-1.2925 -2.7775,-2.0075 -4.7025,-2.0075 -3.7675,0 -6.49,2.8325 -6.49,6.7925 0,1.8425 0.6875,3.685 1.815,4.95 1.2375,1.4025 2.915,2.09 4.9775,2.09 2.53,0 4.29,-1.045 5.6925,-3.4375 l -0.9075,-0.44 z m -8.5525,-5.4175 c 0.1925,-1.155 0.3575,-1.65 0.7975,-2.2275 0.5775,-0.7975 1.4575,-1.21 2.5575,-1.21 1.4575,0 2.5025,0.6875 3.025,2.035 0.11,0.3025 0.2475,1.0175 0.22,1.32 l 0,0.0825 -6.6,0 z"
         style=""
         id="path9515" />
      <path
         d="m 385.1295,341.31994 -0.935,0 c -1.705,0.33 -2.6125,0.44 -4.1525,0.55 l 0,0.825 0.66,0.055 c 1.4025,0.11 1.815,0.6325 1.815,2.2825 l 0,6.4625 c 0,1.5125 -0.495,2.145 -1.705,2.2825 l -0.6875,0.055 0,0.825 7.3975,0 0,-0.825 -0.6875,-0.055 c -1.21,-0.1375 -1.705,-0.77 -1.705,-2.2825 l 0,-6.7375 c 0.99,-1.1 1.7325,-1.54 2.53,-1.54 0.4675,0 0.66,0.0825 1.155,0.4125 0.4675,0.3575 0.9075,0.495 1.4025,0.495 0.9075,0 1.5675,-0.6325 1.5675,-1.5125 0,-0.9075 -0.825,-1.54 -2.0075,-1.54 -0.6325,0 -1.2925,0.1375 -1.9525,0.44 -0.66,0.275 -0.7975,0.385 -2.1175,1.5125 -0.0825,0.0825 -0.3025,0.275 -0.5775,0.495 l 0,-2.2 z"
         style=""
         id="path9517" />
      <path
         d="m 397.13197,341.31994 -0.935,0 c -1.6775,0.3025 -2.585,0.44 -4.0425,0.55 l 0,0.825 0.55,0.055 c 1.43,0.1375 1.815,0.6325 1.815,2.2825 l 0,6.4625 c 0,1.5125 -0.495,2.145 -1.705,2.2825 l -0.6875,0.055 0,0.825 7.37,0 0,-0.825 -0.66,-0.055 c -1.2375,-0.1375 -1.705,-0.77 -1.705,-2.2825 l 0,-10.175 z m -1.265,-4.6475 c -0.935,0 -1.6775,0.7425 -1.6775,1.65 0,0.935 0.7425,1.6775 1.65,1.6775 0.935,0 1.6775,-0.7425 1.6775,-1.65 0,-0.9075 -0.7425,-1.6775 -1.65,-1.6775 z"
         style=""
         id="path9519" />
      <path
         d="m 402.79095,342.22744 0,9.2675 c 0,1.5125 -0.495,2.145 -1.705,2.2825 l -0.6875,0.055 0,0.825 7.3975,0 0,-0.825 -0.6875,-0.055 c -1.21,-0.1375 -1.705,-0.77 -1.705,-2.2825 l 0,-9.2675 2.7225,0 0,-0.9075 -2.7225,0 0,-2.915 c 0,-1.045 0.1925,-1.65 0.6325,-2.1175 0.385,-0.385 0.9075,-0.6325 1.375,-0.6325 0.4675,0 0.88,0.275 1.2925,0.7975 0.385,0.5225 0.77,0.77 1.265,0.77 0.66,0 1.265,-0.55 1.265,-1.1825 0,-0.9075 -1.0175,-1.5675 -2.365,-1.5675 -1.595,0 -3.3825,0.6325 -4.565,1.6225 -1.1275,0.9075 -1.5125,1.925 -1.5125,3.9325 l 0,1.2925 -2.31,0 0,0.9075 2.31,0 z"
         style=""
         id="path9521" />
      <path
         d="m 416.49454,352.07244 -3.4375,-8.36 c -0.0825,-0.1925 -0.11,-0.3575 -0.11,-0.55 0,-0.5775 0.4125,-0.88 1.485,-1.0175 l 0,-0.825 -6.4075,0 0,0.8525 c 1.3475,0.1925 1.6775,0.4675 2.2,1.7325 l 4.9225,11.495 -0.6875,1.595 c -0.605,1.485 -1.5675,2.5025 -2.31,2.5025 -0.275,0 -0.55,-0.165 -0.9075,-0.5225 -0.6875,-0.7425 -0.9625,-0.9075 -1.5125,-0.9075 -0.7975,0 -1.4575,0.6325 -1.4575,1.3475 0,1.0725 1.1,1.87 2.585,1.87 1.1,0 2.09,-0.4675 2.9975,-1.4025 0.8525,-0.88 1.43,-1.8425 2.3375,-4.0425 l 4.7575,-11.165 c 0.66,-1.54 1.32,-2.145 2.805,-2.5025 l 0,-0.8525 -6.05,0 0,0.825 c 1.4575,0.275 1.87,0.5775 1.87,1.3475 0,0.495 -0.1925,1.265 -0.5225,2.09 l -2.5575,6.49 z"
         style=""
         id="path9523" />
    </g>
  </g>
</svg>
